<?xml version="1.0" ?><svg id="Layer_1" style="enable-background:new 0 0 65 65;" version="1.1" viewBox="0 0 65 65" xml:space="preserve" xmlns="http://www.w3.org/2000/svg" xmlns:xlink="http://www.w3.org/1999/xlink"><style type="text/css">
	.st0{fill:#3D3D3D;}
</style><g><g><path class="st0" d="M63.5,54.9H44.3l-8.6-10.5h20.9c0.4,0,0.8-0.3,0.8-0.8v-4c0-0.4-0.3-0.8-0.8-0.8h-2.3v-8.3    c0-0.4-0.3-0.8-0.8-0.8s-0.8,0.3-0.8,0.8v8.3H12.3V8.4h40.5v19.3c0,0.4,0.3,0.8,0.8,0.8s0.8-0.3,0.8-0.8v-20    c0-0.4-0.3-0.8-0.8-0.8H36.3V3.6c0-0.4-0.3-0.8-0.8-0.8h-6c-0.4,0-0.8,0.3-0.8,0.8v3.3H11.5c-0.4,0-0.8,0.3-0.8,0.8v31.3H8.5    c-0.4,0-0.8,0.3-0.8,0.8v4c0,0.4,0.3,0.8,0.8,0.8h4c0.4,0,0.8-0.3,0.8-0.8s-0.3-0.8-0.8-0.8H9.3v-2.5h46.5v2.5H14.5    c-0.4,0-0.8,0.3-0.8,0.8s0.3,0.8,0.8,0.8h14.9l-8.6,10.5H1.5c-0.4,0-0.8,0.3-0.8,0.8s0.3,0.8,0.8,0.8h29h4h29    c0.4,0,0.8-0.3,0.8-0.8S63.9,54.9,63.5,54.9z M30.3,4.4h4.5v2.5h-4.5V4.4z M35.3,46.3l7.1,8.6h-2.9l-4.2-5.1V46.3z M37.5,54.9    h-2.3v-2.7L37.5,54.9z M29.7,46.3v3.6l-4.2,5.1h-2.9L29.7,46.3z M29.8,52.2v2.7h-2.3L29.8,52.2z M31.3,54.9V44.4h2.5v0v5.7v4.8    H31.3z"/><path class="st0" d="M54.5,58.9h-44c-0.4,0-0.8,0.3-0.8,0.8s0.3,0.8,0.8,0.8h44c0.4,0,0.8-0.3,0.8-0.8S54.9,58.9,54.5,58.9z"/><path class="st0" d="M46.5,62.9h-6c-0.4,0-0.8,0.3-0.8,0.8s0.3,0.8,0.8,0.8h6c0.4,0,0.8-0.3,0.8-0.8S46.9,62.9,46.5,62.9z"/><path class="st0" d="M36.5,62.9h-18c-0.4,0-0.8,0.3-0.8,0.8s0.3,0.8,0.8,0.8h18c0.4,0,0.8-0.3,0.8-0.8S36.9,62.9,36.5,62.9z"/><path class="st0" d="M3.5,48.6C3.5,48.6,3.5,48.6,3.5,48.6C3.5,48.6,3.5,48.6,3.5,48.6c-0.4,0.9-1.1,1.6-2,2c0,0,0,0,0,0    c0,0,0,0,0,0c0.9,0.4,1.6,1.1,2,2c0,0,0,0,0,0c0,0,0,0,0,0c0.4-0.9,1.1-1.6,2-2c0,0,0,0,0,0c0,0,0,0,0,0    C4.6,50.2,3.9,49.5,3.5,48.6z"/><path class="st0" d="M3.5,6.6C3.5,6.6,3.5,6.6,3.5,6.6C3.5,6.6,3.5,6.6,3.5,6.6c0.7-1.3,1.7-2.3,3-3c0,0,0,0,0,0c0,0,0,0,0,0    c-1.3-0.6-2.3-1.7-3-3c0,0,0,0,0,0c0,0,0,0,0,0c-0.6,1.3-1.7,2.3-3,3c0,0,0,0,0,0c0,0,0,0,0,0C1.8,4.3,2.9,5.3,3.5,6.6z"/><path class="st0" d="M50.5,4.6C50.5,4.6,50.5,4.6,50.5,4.6C50.5,4.6,50.5,4.6,50.5,4.6c0.2-0.4,0.6-0.8,1-1c0,0,0,0,0,0    c0,0,0,0,0,0c-0.4-0.2-0.8-0.6-1-1c0,0,0,0,0,0c0,0,0,0,0,0c-0.2,0.4-0.6,0.8-1,1c0,0,0,0,0,0c0,0,0,0,0,0    C49.9,3.8,50.3,4.2,50.5,4.6z"/><path class="st0" d="M64.5,16.6c-1.3-0.6-2.3-1.7-3-3c0,0,0,0,0,0c0,0,0,0,0,0c-0.6,1.3-1.7,2.3-3,3c0,0,0,0,0,0c0,0,0,0,0,0    c1.3,0.6,2.3,1.7,3,3c0,0,0,0,0,0c0,0,0,0,0,0C62.1,18.3,63.2,17.3,64.5,16.6C64.5,16.6,64.5,16.6,64.5,16.6    C64.5,16.6,64.5,16.6,64.5,16.6z"/><path class="st0" d="M19.5,30.9c-0.4,0-0.8,0.3-0.8,0.8v4c0,0.4,0.3,0.8,0.8,0.8h4c0.4,0,0.8-0.3,0.8-0.8v-4    c0-0.4-0.3-0.8-0.8-0.8H19.5z M22.8,34.9h-2.5v-2.5h2.5V34.9z"/><path class="st0" d="M27.5,22.9c-0.4,0-0.8,0.3-0.8,0.8v12c0,0.4,0.3,0.8,0.8,0.8h4c0.4,0,0.8-0.3,0.8-0.8v-12    c0-0.4-0.3-0.8-0.8-0.8H27.5z M30.8,34.9h-2.5V24.4h2.5V34.9z"/><path class="st0" d="M35.5,26.9c-0.4,0-0.8,0.3-0.8,0.8v8c0,0.4,0.3,0.8,0.8,0.8h4c0.4,0,0.8-0.3,0.8-0.8v-8    c0-0.4-0.3-0.8-0.8-0.8H35.5z M38.8,34.9h-2.5v-6.5h2.5V34.9z"/><path class="st0" d="M43.5,36.4h4c0.4,0,0.8-0.3,0.8-0.8v-16c0-0.4-0.3-0.8-0.8-0.8h-4c-0.4,0-0.8,0.3-0.8,0.8v16    C42.8,36,43.1,36.4,43.5,36.4z M44.3,20.4h2.5v14.5h-2.5V20.4z"/><path class="st0" d="M43.3,16.1c1.7,0,3.1-1.4,3.1-3.1s-1.4-3.1-3.1-3.1c-1.7,0-3.2,1.4-3.2,3.1c0,0.2,0,0.3,0,0.5    c0,0.2,0,0.3,0,0.5c0,0,0,0.1,0,0.1l0.1-0.1c0.1,0.2,0.2,0.5,0.3,0.7l-3,3c-0.5-0.3-1-0.5-1.6-0.5s-1.1,0.2-1.6,0.5l-2.9-2.9    c0.1-0.2,0.2-0.4,0.3-0.7l0.1,0.1c0,0,0-0.1,0-0.1c0-0.2,0-0.3,0-0.5c0-0.2,0-0.3,0-0.5c0-1.7-1.4-3.2-3.2-3.2    c-1.7,0-3.1,1.4-3.1,3.2c0,0.2,0,0.3,0,0.5c0,0.2,0,0.3,0,0.5c0,0,0,0.1,0,0.1l0.1-0.1c0.1,0.2,0.2,0.5,0.3,0.7l-2.9,2.9    c-0.5-0.3-1-0.5-1.6-0.5c-1.7,0-3.1,1.4-3.1,3.1s1.4,3.1,3.1,3.1c1.7,0,3.2-1.4,3.2-3.1c0-0.6-0.2-1.1-0.5-1.6l2.9-2.9    c0.5,0.3,1,0.5,1.6,0.5c0.6,0,1.1-0.2,1.6-0.5l2.9,2.9c-0.3,0.5-0.5,1-0.5,1.6c0,1.7,1.4,3.1,3.2,3.1s3.2-1.4,3.2-3.1    c0-0.6-0.2-1.1-0.5-1.6l3-3C42.2,16,42.7,16.1,43.3,16.1z M21.7,21.9c-0.9,0-1.6-0.7-1.6-1.6s0.7-1.6,1.6-1.6    c0.9,0,1.7,0.7,1.7,1.6S22.6,21.9,21.7,21.9z M28.9,14.7c-0.9,0-1.6-0.7-1.6-1.6c0-0.9,0.7-1.7,1.6-1.7c0.9,0,1.7,0.7,1.7,1.7    C30.5,14,29.8,14.7,28.9,14.7z M36.1,21.9c-0.9,0-1.7-0.7-1.7-1.6s0.7-1.6,1.7-1.6s1.7,0.7,1.7,1.6S37,21.9,36.1,21.9z M43.3,11.3    c0.9,0,1.6,0.7,1.6,1.6s-0.7,1.6-1.6,1.6c-0.9,0-1.7-0.7-1.7-1.6S42.4,11.3,43.3,11.3z"/></g></g></svg>