<?xml version="1.0" ?><svg id="Layer_1" style="enable-background:new 0 0 65 65;" version="1.1" viewBox="0 0 65 65" xml:space="preserve" xmlns="http://www.w3.org/2000/svg" xmlns:xlink="http://www.w3.org/1999/xlink"><style type="text/css">
	.st0{fill:#3D3D3D;}
</style><g><g><path class="st0" d="M63.5,54.9H36.8v-6.7h1c0.4,0,0.7-0.1,1-0.2v5.1c0,0.4,0.3,0.8,0.8,0.8h5.3c0.4,0,0.8-0.3,0.8-0.8v-5.5h0.6    c1.1,0,2.1-0.9,2.1-2.1v-3.3c0-2.4-1.4-4.5-3.5-5.5c0.9-0.7,1.5-1.9,1.5-3.1c0-2.2-1.8-4.1-4.1-4.1s-4.1,1.8-4.1,4.1    s1.8,4.1,4.1,4.1c2.5,0,4.6,2.1,4.6,4.6v3.3c0,0.3-0.3,0.6-0.6,0.6h-0.6v-1.2c0-0.4-0.3-0.8-0.8-0.8s-0.8,0.3-0.8,0.8v7.5H43v-5.5    c0-0.4-0.3-0.8-0.8-0.8s-0.8,0.3-0.8,0.8v5.5h-1.2v-6.7v-0.9v-2.6c0-2.8-1.5-5.4-3.9-6.8c-0.2-0.1-0.5-0.1-0.8,0    c-1.9,1.2-4.4,1.2-6.2,0c-0.2-0.2-0.5-0.2-0.8,0c-2.4,1.4-3.9,4-3.9,6.8v2.6v0.9v6.7h-1.2v-5.5c0-0.4-0.3-0.8-0.8-0.8    S22,46.4,22,46.8v5.5h-1.2v-7.5c0-0.4-0.3-0.8-0.8-0.8s-0.8,0.3-0.8,0.8V46h-0.6c-0.3,0-0.6-0.3-0.6-0.6v-3.3    c0-2.5,2.1-4.6,4.6-4.6c2.2,0,4.1-1.8,4.1-4.1s-1.8-4.1-4.1-4.1s-4.1,1.8-4.1,4.1c0,1.3,0.6,2.4,1.5,3.1c-2.1,1-3.5,3.1-3.5,5.5    v3.3c0,1.1,0.9,2.1,2.1,2.1h0.6v5.5c0,0.4,0.3,0.8,0.8,0.8h5.3c0.4,0,0.8-0.3,0.8-0.8V48c0.3,0.1,0.7,0.2,1,0.2h1v6.7H1.5    c-0.4,0-0.8,0.3-0.8,0.8s0.3,0.8,0.8,0.8h62c0.4,0,0.8-0.3,0.8-0.8S63.9,54.9,63.5,54.9z M42.3,36c-1.4,0-2.6-1.2-2.6-2.6    s1.2-2.6,2.6-2.6s2.6,1.2,2.6,2.6S43.7,36,42.3,36z M20.2,33.5c0-1.4,1.2-2.6,2.6-2.6s2.6,1.2,2.6,2.6S24.2,36,22.7,36    S20.2,34.9,20.2,33.5z M33.3,54.9v-6.6c0-0.4-0.3-0.8-0.8-0.8s-0.8,0.3-0.8,0.8v6.6h-2v-7.4c0,0,0-0.1,0-0.1c0,0,0-0.1,0-0.1v-2.6    c0-0.4-0.3-0.8-0.8-0.8s-0.8,0.3-0.8,0.8v1.9h-1c-0.6,0-1-0.5-1-1v-0.9v-2.6c0-2.1,1.1-4.1,2.8-5.3c2.2,1.2,4.9,1.2,7.1,0    c1.8,1.2,2.8,3.2,2.8,5.3v2.6v0.9c0,0.6-0.5,1-1,1h-1v-1.9c0-0.4-0.3-0.8-0.8-0.8s-0.8,0.3-0.8,0.8v10.1H33.3z"/><path class="st0" d="M54.5,58.9h-44c-0.4,0-0.8,0.3-0.8,0.8s0.3,0.8,0.8,0.8h44c0.4,0,0.8-0.3,0.8-0.8S54.9,58.9,54.5,58.9z"/><path class="st0" d="M46.5,62.9h-6c-0.4,0-0.8,0.3-0.8,0.8s0.3,0.8,0.8,0.8h6c0.4,0,0.8-0.3,0.8-0.8S46.9,62.9,46.5,62.9z"/><path class="st0" d="M36.5,62.9h-18c-0.4,0-0.8,0.3-0.8,0.8s0.3,0.8,0.8,0.8h18c0.4,0,0.8-0.3,0.8-0.8S36.9,62.9,36.5,62.9z"/><path class="st0" d="M3.5,48.6C3.5,48.6,3.5,48.6,3.5,48.6C3.5,48.6,3.5,48.6,3.5,48.6c-0.4,0.9-1.1,1.6-2,2c0,0,0,0,0,0    c0,0,0,0,0,0c0.9,0.4,1.6,1.1,2,2c0,0,0,0,0,0c0,0,0,0,0,0c0.4-0.9,1.1-1.6,2-2c0,0,0,0,0,0c0,0,0,0,0,0    C4.6,50.2,3.9,49.5,3.5,48.6z"/><path class="st0" d="M3.5,6.6C3.5,6.6,3.5,6.6,3.5,6.6C3.5,6.6,3.5,6.6,3.5,6.6c0.7-1.3,1.7-2.3,3-3c0,0,0,0,0,0c0,0,0,0,0,0    c-1.3-0.6-2.3-1.7-3-3c0,0,0,0,0,0c0,0,0,0,0,0c-0.6,1.3-1.7,2.3-3,3c0,0,0,0,0,0c0,0,0,0,0,0C1.8,4.3,2.9,5.3,3.5,6.6z"/><path class="st0" d="M57.5,46.6C57.5,46.6,57.5,46.6,57.5,46.6C57.5,46.6,57.5,46.6,57.5,46.6c0.4-0.9,1.1-1.6,2-2c0,0,0,0,0,0    c0,0,0,0,0,0c-0.9-0.4-1.6-1.1-2-2c0,0,0,0,0,0c0,0,0,0,0,0c-0.4,0.9-1.1,1.6-2,2c0,0,0,0,0,0c0,0,0,0,0,0    C56.4,45.1,57.1,45.7,57.5,46.6z"/><path class="st0" d="M50.5,4.6C50.5,4.6,50.5,4.6,50.5,4.6C50.5,4.6,50.5,4.6,50.5,4.6c0.2-0.4,0.6-0.8,1-1c0,0,0,0,0,0    c0,0,0,0,0,0c-0.4-0.2-0.8-0.6-1-1c0,0,0,0,0,0c0,0,0,0,0,0c-0.2,0.4-0.6,0.8-1,1c0,0,0,0,0,0c0,0,0,0,0,0    C49.9,3.8,50.3,4.2,50.5,4.6z"/><path class="st0" d="M64.5,16.6c-1.3-0.6-2.3-1.7-3-3c0,0,0,0,0,0c0,0,0,0,0,0c-0.6,1.3-1.7,2.3-3,3c0,0,0,0,0,0c0,0,0,0,0,0    c1.3,0.6,2.3,1.7,3,3c0,0,0,0,0,0c0,0,0,0,0,0C62.1,18.3,63.2,17.3,64.5,16.6C64.5,16.6,64.5,16.6,64.5,16.6    C64.5,16.6,64.5,16.6,64.5,16.6z"/><path class="st0" d="M27.8,30.7c0,2.6,2.1,4.7,4.7,4.7s4.7-2.1,4.7-4.7S35.1,26,32.5,26S27.8,28.1,27.8,30.7z M35.7,30.7    c0,1.8-1.4,3.2-3.2,3.2s-3.2-1.4-3.2-3.2s1.4-3.2,3.2-3.2S35.7,28.9,35.7,30.7z"/><path class="st0" d="M17,36.6c0.3-0.3,0.4-0.7,0.1-1.1c-2.5-3.2-3.8-7-4-11.1h38.7c-0.2,4-1.5,7.8-4,11.1    c-0.3,0.3-0.2,0.8,0.1,1.1c0.1,0.1,0.3,0.2,0.5,0.2c0.2,0,0.4-0.1,0.6-0.3c2.8-3.7,4.3-8.1,4.3-12.7c0-11.5-9.4-20.9-20.9-20.9    s-20.9,9.4-20.9,20.9c0,4.6,1.5,9,4.3,12.7C16.2,36.8,16.7,36.8,17,36.6z M51.8,23h-7.8c-0.1-3.4-0.5-6.6-1.4-9.3H49    C50.7,16.4,51.7,19.6,51.8,23z M48,12.2h-5.8c-1.1-3-2.6-5.4-4.4-7C41.9,6.3,45.5,8.8,48,12.2z M33.3,4.4c3,0.4,5.6,3.4,7.3,7.7    h-7.3V4.4z M33.3,13.7h7.8c0.9,2.7,1.4,5.9,1.5,9.3h-9.3V13.7z M31.8,23h-9.3c0.1-3.4,0.6-6.6,1.5-9.3h7.8V23z M31.8,4.4v7.7h-7.3    C26.1,7.8,28.8,4.9,31.8,4.4z M27.2,5.1c-1.8,1.6-3.3,4-4.4,7H17C19.5,8.8,23.1,6.3,27.2,5.1z M16,13.7h6.3    c-0.8,2.8-1.3,5.9-1.4,9.3h-7.8C13.3,19.6,14.3,16.4,16,13.7z"/></g></g></svg>