<?xml version="1.0" ?><svg id="Layer_1" style="enable-background:new 0 0 65 65;" version="1.1" viewBox="0 0 65 65" xml:space="preserve" xmlns="http://www.w3.org/2000/svg" xmlns:xlink="http://www.w3.org/1999/xlink"><style type="text/css">
	.st0{fill:#3D3D3D;}
</style><g><g><path class="st0" d="M63.5,54.9h-62c-0.4,0-0.8,0.3-0.8,0.8s0.3,0.8,0.8,0.8h62c0.4,0,0.8-0.3,0.8-0.8S63.9,54.9,63.5,54.9z"/><path class="st0" d="M54.5,58.9h-44c-0.4,0-0.8,0.3-0.8,0.8s0.3,0.8,0.8,0.8h44c0.4,0,0.8-0.3,0.8-0.8S54.9,58.9,54.5,58.9z"/><path class="st0" d="M46.5,62.9h-6c-0.4,0-0.8,0.3-0.8,0.8s0.3,0.8,0.8,0.8h6c0.4,0,0.8-0.3,0.8-0.8S46.9,62.9,46.5,62.9z"/><path class="st0" d="M36.5,62.9h-18c-0.4,0-0.8,0.3-0.8,0.8s0.3,0.8,0.8,0.8h18c0.4,0,0.8-0.3,0.8-0.8S36.9,62.9,36.5,62.9z"/><path class="st0" d="M3.5,48.6C3.5,48.6,3.5,48.6,3.5,48.6C3.5,48.6,3.5,48.6,3.5,48.6c-0.4,0.9-1.1,1.6-2,2c0,0,0,0,0,0    c0,0,0,0,0,0c0.9,0.4,1.6,1.1,2,2c0,0,0,0,0,0c0,0,0,0,0,0c0.4-0.9,1.1-1.6,2-2c0,0,0,0,0,0c0,0,0,0,0,0    C4.6,50.2,3.9,49.5,3.5,48.6z"/><path class="st0" d="M3.5,6.6C3.5,6.6,3.5,6.6,3.5,6.6C3.5,6.6,3.5,6.6,3.5,6.6c0.7-1.3,1.7-2.3,3-3c0,0,0,0,0,0c0,0,0,0,0,0    c-1.3-0.6-2.3-1.7-3-3c0,0,0,0,0,0c0,0,0,0,0,0c-0.6,1.3-1.7,2.3-3,3c0,0,0,0,0,0c0,0,0,0,0,0C1.8,4.3,2.9,5.3,3.5,6.6z"/><path class="st0" d="M57.5,42.6C57.5,42.6,57.5,42.6,57.5,42.6C57.5,42.6,57.5,42.6,57.5,42.6c-0.4,0.9-1.1,1.6-2,2c0,0,0,0,0,0    c0,0,0,0,0,0c0.9,0.4,1.6,1.1,2,2c0,0,0,0,0,0c0,0,0,0,0,0c0.4-0.9,1.1-1.6,2-2c0,0,0,0,0,0c0,0,0,0,0,0    C58.6,44.2,57.9,43.5,57.5,42.6z"/><path class="st0" d="M50.5,4.6C50.5,4.6,50.5,4.6,50.5,4.6C50.5,4.6,50.5,4.6,50.5,4.6c0.2-0.4,0.6-0.8,1-1c0,0,0,0,0,0    c0,0,0,0,0,0c-0.4-0.2-0.8-0.6-1-1c0,0,0,0,0,0c0,0,0,0,0,0c-0.2,0.4-0.6,0.8-1,1c0,0,0,0,0,0c0,0,0,0,0,0    C49.9,3.8,50.3,4.2,50.5,4.6z"/><path class="st0" d="M64.5,16.6c-1.3-0.6-2.3-1.7-3-3c0,0,0,0,0,0c0,0,0,0,0,0c-0.6,1.3-1.7,2.3-3,3c0,0,0,0,0,0c0,0,0,0,0,0    c1.3,0.6,2.3,1.7,3,3c0,0,0,0,0,0c0,0,0,0,0,0C62.1,18.3,63.2,17.3,64.5,16.6C64.5,16.6,64.5,16.6,64.5,16.6    C64.5,16.6,64.5,16.6,64.5,16.6z"/><path class="st0" d="M4.8,35.4c0,0.4,0.3,0.8,0.8,0.8h3.9v9.7H5.5c-0.4,0-0.8,0.3-0.8,0.8s0.3,0.8,0.8,0.8h3.9v1.1    c0,0.4,0.3,0.8,0.8,0.8h4.7c0.4,0,0.8-0.3,0.8-0.8v-0.3h1.4c0,0,5,0.2,9.9,2.3c3,1.3,6.2,1.9,8.7,1.9c1.7,0,3.2-0.3,4.1-0.9    c0.6-0.4,14.3-9,19.7-14.4c1-1.1,1.2-2.7,0.3-3.7c-0.7-0.9-2.2-1.6-4.9,0.2c-3.2,1.9-6.7,4-8.1,4.6c-1-2.3-2.9-2.7-3.9-2.5    C34.3,37,31.1,34.5,31,34.5c-0.2-0.2-4.7-4.2-9.8-1.4c-2.9,1.6-4.8,1.9-5.7,2v-1.5c0-0.4-0.3-0.8-0.8-0.8h-4.7    c-0.4,0-0.8,0.3-0.8,0.8v1.1H5.5C5.1,34.6,4.8,34.9,4.8,35.4z M15.6,36.5c1.1-0.1,3.2-0.5,6.4-2.2c4.1-2.2,7.9,1.1,8.1,1.2    c0.1,0.1,3.7,3.1,12.9,1.5c0.2,0,1.7-0.2,2.5,2.1c-0.1,0.5-0.5,2.9-4.7,3.1H29.2c-0.4,0-0.8,0.3-0.8,0.8s0.3,0.8,0.8,0.8l11.6,0    c4.8-0.2,5.9-2.9,6.1-4.1c1.1-0.4,3.4-1.7,8.6-4.9c1-0.7,2.3-1.3,3-0.5c0.4,0.5,0.3,1.3-0.2,1.7c-5.3,5.3-19.3,14.1-19.4,14.2    c-1.7,1.1-6.5,1-11.4-1.1c-5.2-2.2-10.3-2.4-10.5-2.4h-1.4V36.5z M10.9,34.3h3.2v13.4h-3.2V34.3z"/><path class="st0" d="M20.8,30.5c0.4-0.2,0.5-0.6,0.3-1c-1.1-2.2-1.8-4.6-1.9-7.1h4.5c0.3,1.5,1.6,2.7,3.2,2.9    c0.2,1.5,0.4,2.9,0.7,4.2c0.1,0.3,0.4,0.6,0.7,0.6c0.1,0,0.1,0,0.2,0c0.4-0.1,0.7-0.5,0.6-0.9c-0.3-1.2-0.5-2.5-0.6-3.9    c1.4-0.4,2.4-1.5,2.7-2.9h4.6v10.3c0,0.4,0.3,0.8,0.8,0.8s0.8-0.3,0.8-0.8V22.4h7.5c0,0.4-0.1,0.9-0.2,1.4c-2.1,0-3.8,1.7-3.8,3.8    c0,1.7,1.1,3.1,2.6,3.6c0,0.1-0.1,0.2-0.1,0.4c-0.1,0.1-0.1,0.3-0.2,0.5c-0.1,0.4,0.1,0.8,0.4,1c0.1,0,0.2,0,0.3,0    c0.3,0,0.6-0.2,0.7-0.5c0.1-0.2,0.1-0.4,0.2-0.5c0.1-0.3,0.2-0.4,0.2-0.8c1.9-0.2,3.4-1.8,3.4-3.7c0-1.6-0.9-2.9-2.3-3.5    c0.1-0.7,0.2-1.3,0.2-1.7h7.5c-0.1,3.2-1.1,6.2-2.9,8.8c-0.2,0.3-0.1,0.8,0.2,1c0.1,0.1,0.3,0.1,0.4,0.1c0.2,0,0.5-0.1,0.6-0.3    c2.1-3.1,3.2-6.7,3.2-10.4c0-5.3-2.2-10.1-5.7-13.5c0,0,0,0,0-0.1c0,0-0.1-0.1-0.1-0.1C46,4.9,41.5,2.9,36.5,2.9    c-5,0-9.5,2-12.8,5.1c0,0-0.1,0.1-0.1,0.1c0,0,0,0,0,0.1c-3.5,3.4-5.7,8.2-5.7,13.5c0,3,0.7,5.8,2.1,8.5    C20,30.5,20.4,30.6,20.8,30.5z M27.6,23.9C27.6,23.9,27.6,23.9,27.6,23.9C27.6,23.9,27.6,23.9,27.6,23.9    C27.5,23.9,27.5,23.9,27.6,23.9c-1.3,0-2.3-1-2.3-2.2s1-2.3,2.3-2.3c0,0,0,0,0.1,0c0,0,0,0,0,0c0,0,0,0,0,0c1.2,0,2.2,1,2.2,2.2    C29.8,22.8,28.8,23.8,27.6,23.9z M35.8,20.9h-4.6c-0.3-1.4-1.4-2.5-2.7-2.9c0.2-1.8,0.5-3.5,0.9-5c1.1,0.4,2.2,0.8,3.4,1    c0.2,1.7,1.4,3,3,3.3V20.9z M37.3,20.9v-3.6c1.6-0.3,2.8-1.7,3-3.3c1.2-0.2,2.3-0.6,3.4-1c0.7,2.4,1.1,5.1,1.1,7.9H37.3z     M46.8,27.6c0,1.2-1,2.3-2.3,2.3c-1.2,0-2.3-1-2.3-2.3s1-2.3,2.3-2.3C45.8,25.3,46.8,26.3,46.8,27.6z M53.7,20.9h-7.5    c-0.1-3.1-0.5-6-1.2-8.5c1.4-0.7,2.7-1.6,3.9-2.7C51.7,12.6,53.5,16.5,53.7,20.9z M47.8,8.6c-1,0.9-2.1,1.6-3.3,2.2    c-0.9-2.5-2.1-4.5-3.4-5.9C43.6,5.7,45.9,7,47.8,8.6z M37.3,4.5c2.4,0.5,4.5,3.2,5.9,7.1c-1,0.4-2,0.7-3.1,0.9    c-0.4-1.3-1.5-2.3-2.8-2.5V4.5z M38.7,13.5C38.7,13.5,38.7,13.5,38.7,13.5C38.7,13.5,38.7,13.5,38.7,13.5c0,0.1,0,0.1,0,0.2    c0,1.2-1,2.3-2.3,2.3s-2.3-1-2.3-2.3c0,0,0-0.1,0-0.1c0,0,0,0,0,0c0,0,0,0,0,0c0.1-1.2,1-2.1,2.2-2.1S38.7,12.3,38.7,13.5z     M35.8,4.5v5.5c-1.3,0.3-2.4,1.3-2.8,2.5c-1.1-0.2-2.1-0.5-3.1-0.9C31.2,7.6,33.4,4.9,35.8,4.5z M32,5c-1.4,1.4-2.6,3.4-3.5,5.9    c-1.2-0.6-2.3-1.4-3.3-2.3C27.1,7,29.4,5.7,32,5z M24.1,9.7c1.2,1.1,2.5,2,3.9,2.7c-0.5,1.7-0.9,3.6-1.1,5.6    c-1.6,0.2-2.8,1.4-3.1,3h-4.5C19.5,16.5,21.3,12.6,24.1,9.7z"/></g></g></svg>