<?xml version="1.0" ?><svg id="Layer_1" style="enable-background:new 0 0 256 256;" version="1.1" viewBox="0 0 256 256" xml:space="preserve" xmlns="http://www.w3.org/2000/svg" xmlns:xlink="http://www.w3.org/1999/xlink"><g><path d="M81.2,114.2c5.4,15,13.6,25.6,24.3,31.7c6.8,3.8,14.4,5.8,22.1,5.8c0.1,0,0.3,0,0.4,0c7.7,0,15.7-1.9,22.6-5.8   c10.7-6.1,18.8-16.7,24.2-31.7c4.8-13,10.5-30.2,11.7-48.1c1.2-18.2-4.3-35.1-15.2-46.5C160.7,8.6,145.2,2.8,128.2,3.3   c-17.4-0.5-32.8,5.3-43.5,16.4C73.8,31,68.2,47.9,69.4,66.2C70.7,84,76.4,101.2,81.2,114.2z M91.9,26.6c8.7-9,21.4-13.8,36.2-13.3   c14.5-0.5,27.3,4.3,35.9,13.3c9,9.3,13.5,23.5,12.5,38.8c-1.2,16.6-6.6,32.9-11.2,45.3c-4.6,12.7-11.2,21.5-19.8,26.4   c-5.3,3-11.4,4.6-17.7,4.5c-6.2,0-12.3-1.6-17.6-4.5c-8.6-4.9-15.2-13.7-19.8-26.4l0,0C86,98.4,80.6,82,79.4,65.5   C78.4,50.1,82.9,35.9,91.9,26.6z"/><path d="M245.4,211.5c-2.9-15.6-13.4-28.6-28.1-34.7c-19.9-8.2-47.8-20.3-48.1-20.5l-2.7-1.2l-2.3,1.7c-0.9,0.7-3.5,2.5-5.1,3.5   c-5.4,3.4-11.2,5.9-17.3,7.2c-3.6,0.9-7,1.3-10.5,1.4c-1,0-2,0-3.1-0.1l-0.3,0l-0.3,0c-1,0.1-2,0.1-3.2,0.1   c-3.3-0.1-6.7-0.6-10.4-1.5c-6-1.4-11.8-3.8-17.4-7.4c-1.4-0.8-4-2.7-4.9-3.3l-2.3-1.8l-2.7,1.2c-0.3,0.1-28.2,12.3-48.1,20.5   c-14.7,6.1-25.2,19-28.1,34.7l-7.8,41.2h250.3L245.4,211.5z M14.9,242.7l5.5-29.4c2.3-12.3,10.5-22.5,22.1-27.2   c16.4-6.7,38.2-16.2,45.7-19.4c1.1,0.8,2.4,1.6,3.3,2.2c6.4,4,13.3,6.9,20.3,8.5c4.3,1,8.3,1.6,12.3,1.7l0.5,0c1.1,0,2.2,0,3.4-0.1   c1.1,0.1,2.2,0.1,3.4,0.1l0.5,0c4-0.1,8-0.7,12.3-1.7c7.1-1.6,13.9-4.5,20.1-8.4c1.1-0.6,2.4-1.5,3.5-2.3   c7.5,3.2,29.2,12.7,45.7,19.4c11.6,4.8,19.8,15,22.1,27.2l5.5,29.4H14.9z"/></g></svg>