<?xml version="1.0" ?><svg id="Layer_1" style="enable-background:new 0 0 65 65;" version="1.1" viewBox="0 0 65 65" xml:space="preserve" xmlns="http://www.w3.org/2000/svg" xmlns:xlink="http://www.w3.org/1999/xlink"><style type="text/css">
	.st0{fill:#3D3D3D;}
</style><g><g><path class="st0" d="M63.5,54.9H40c9.5-3.5,16.3-12.6,16.3-23.3C56.3,18,45.1,6.9,31.5,6.9S6.8,18,6.8,31.6    c0,10.7,6.8,19.8,16.3,23.3H1.5c-0.4,0-0.8,0.3-0.8,0.8s0.3,0.8,0.8,0.8h62c0.4,0,0.8-0.3,0.8-0.8S63.9,54.9,63.5,54.9z M8.3,31.6    c0-12.8,10.4-23.3,23.3-23.3s23.3,10.4,23.3,23.3S44.3,54.9,31.5,54.9S8.3,44.4,8.3,31.6z"/><path class="st0" d="M54.5,58.9h-44c-0.4,0-0.8,0.3-0.8,0.8s0.3,0.8,0.8,0.8h44c0.4,0,0.8-0.3,0.8-0.8S54.9,58.9,54.5,58.9z"/><path class="st0" d="M46.5,62.9h-6c-0.4,0-0.8,0.3-0.8,0.8s0.3,0.8,0.8,0.8h6c0.4,0,0.8-0.3,0.8-0.8S46.9,62.9,46.5,62.9z"/><path class="st0" d="M36.5,62.9h-18c-0.4,0-0.8,0.3-0.8,0.8s0.3,0.8,0.8,0.8h18c0.4,0,0.8-0.3,0.8-0.8S36.9,62.9,36.5,62.9z"/><path class="st0" d="M3.5,48.6C3.5,48.6,3.5,48.6,3.5,48.6C3.5,48.6,3.5,48.6,3.5,48.6c-0.4,0.9-1.1,1.6-2,2c0,0,0,0,0,0    c0,0,0,0,0,0c0.9,0.4,1.6,1.1,2,2c0,0,0,0,0,0c0,0,0,0,0,0c0.4-0.9,1.1-1.6,2-2c0,0,0,0,0,0c0,0,0,0,0,0    C4.6,50.2,3.9,49.5,3.5,48.6z"/><path class="st0" d="M3.5,6.6C3.5,6.6,3.5,6.6,3.5,6.6C3.5,6.6,3.5,6.6,3.5,6.6c0.7-1.3,1.7-2.3,3-3c0,0,0,0,0,0c0,0,0,0,0,0    c-1.3-0.6-2.3-1.7-3-3c0,0,0,0,0,0c0,0,0,0,0,0c-0.6,1.3-1.7,2.3-3,3c0,0,0,0,0,0c0,0,0,0,0,0C1.8,4.3,2.9,5.3,3.5,6.6z"/><path class="st0" d="M55.5,44.6C55.5,44.6,55.5,44.6,55.5,44.6c0.9,0.4,1.6,1.1,2,2c0,0,0,0,0,0c0,0,0,0,0,0c0.4-0.9,1.1-1.6,2-2    c0,0,0,0,0,0c0,0,0,0,0,0c-0.9-0.4-1.6-1.1-2-2c0,0,0,0,0,0c0,0,0,0,0,0C57.1,43.5,56.4,44.2,55.5,44.6    C55.5,44.6,55.5,44.6,55.5,44.6z"/><path class="st0" d="M50.5,4.6C50.5,4.6,50.5,4.6,50.5,4.6C50.5,4.6,50.5,4.6,50.5,4.6c0.2-0.4,0.6-0.8,1-1c0,0,0,0,0,0    c0,0,0,0,0,0c-0.4-0.2-0.8-0.6-1-1c0,0,0,0,0,0c0,0,0,0,0,0c-0.2,0.4-0.6,0.8-1,1c0,0,0,0,0,0c0,0,0,0,0,0    C49.9,3.8,50.3,4.2,50.5,4.6z"/><path class="st0" d="M64.5,16.6c-1.3-0.6-2.3-1.7-3-3c0,0,0,0,0,0c0,0,0,0,0,0c-0.6,1.3-1.7,2.3-3,3c0,0,0,0,0,0c0,0,0,0,0,0    c1.3,0.6,2.3,1.7,3,3c0,0,0,0,0,0c0,0,0,0,0,0C62.1,18.3,63.2,17.3,64.5,16.6C64.5,16.6,64.5,16.6,64.5,16.6    C64.5,16.6,64.5,16.6,64.5,16.6z"/><path class="st0" d="M14.4,31.6c0-9.4,7.6-17,17-17.1c0,0,0,0,0,0c2.3,0,4.5,0.5,6.6,1.3c0,0,0,0,0,0c1.3,0.5,2.5,1.2,3.6,2.1    c0.3,0.2,0.8,0.2,1-0.2c0.2-0.3,0.2-0.8-0.2-1c-1.2-0.9-2.5-1.6-3.9-2.2c0,0,0,0,0,0c-2.3-1-4.7-1.5-7.2-1.5h0c0,0,0,0,0,0    c-10.2,0-18.5,8.3-18.5,18.6c0,4.8,1.8,9.4,5.2,12.9c0.1,0.2,0.3,0.2,0.5,0.2c0.2,0,0.4-0.1,0.5-0.2c0.3-0.3,0.3-0.8,0-1.1    C16.1,40.2,14.4,36,14.4,31.6z"/><path class="st0" d="M44.8,18.7c-0.3-0.3-0.8-0.3-1.1,0c-0.3,0.3-0.3,0.8,0,1.1c3.1,3.2,4.8,7.4,4.8,11.8c0,9.4-7.6,17-17,17.1    c0,0,0,0-0.1,0c-2.3,0-4.6-0.5-6.7-1.4c0,0,0,0,0,0c-1.3-0.5-2.5-1.2-3.6-2.1c-0.3-0.2-0.8-0.2-1.1,0.1c-0.2,0.3-0.2,0.8,0.1,1.1    c1.2,0.9,2.5,1.7,3.9,2.2c0,0,0,0,0,0c2.3,1,4.7,1.5,7.3,1.5h0.1c0,0,0,0,0,0c10.2,0,18.5-8.4,18.5-18.6    C50.1,26.8,48.2,22.2,44.8,18.7z"/><path class="st0" d="M32.3,17.7v-1.5c0-0.4-0.3-0.8-0.8-0.8s-0.8,0.3-0.8,0.8v1.5c0,0.4,0.3,0.8,0.8,0.8S32.3,18.1,32.3,17.7z"/><path class="st0" d="M30.8,44.8v1.5c0,0.4,0.3,0.8,0.8,0.8s0.8-0.3,0.8-0.8v-1.5c0-0.4-0.3-0.8-0.8-0.8S30.8,44.4,30.8,44.8z"/><path class="st0" d="M25.4,19.1l-0.8-1.3c-0.2-0.4-0.7-0.5-1-0.3c-0.4,0.2-0.5,0.7-0.3,1l0.8,1.3c0.1,0.2,0.4,0.4,0.6,0.4    c0.1,0,0.3,0,0.4-0.1C25.5,19.9,25.6,19.5,25.4,19.1z"/><path class="st0" d="M37.9,42.3c-0.4,0.2-0.5,0.7-0.3,1l0.8,1.3c0.1,0.2,0.4,0.4,0.6,0.4c0.1,0,0.3,0,0.4-0.1    c0.4-0.2,0.5-0.7,0.3-1l-0.8-1.3C38.7,42.2,38.3,42.1,37.9,42.3z"/><path class="st0" d="M20.1,23.8L18.8,23c-0.4-0.2-0.8-0.1-1,0.3c-0.2,0.4-0.1,0.8,0.3,1l1.3,0.8c0.1,0.1,0.2,0.1,0.4,0.1    c0.3,0,0.5-0.1,0.6-0.4C20.6,24.5,20.5,24,20.1,23.8z"/><path class="st0" d="M43.6,37.4c-0.4-0.2-0.8-0.1-1,0.3c-0.2,0.4-0.1,0.8,0.3,1l1.3,0.8c0.1,0.1,0.2,0.1,0.4,0.1    c0.3,0,0.5-0.1,0.6-0.4c0.2-0.4,0.1-0.8-0.3-1L43.6,37.4z"/><path class="st0" d="M18.7,31.2c0-0.4-0.3-0.8-0.8-0.8h-1.5c-0.4,0-0.8,0.3-0.8,0.8S16,32,16.4,32H18C18.4,32,18.7,31.7,18.7,31.2    z"/><path class="st0" d="M47.3,31.2c0-0.4-0.3-0.8-0.8-0.8H45c-0.4,0-0.8,0.3-0.8,0.8S44.6,32,45,32h1.5C47,32,47.3,31.7,47.3,31.2z"/><path class="st0" d="M18.4,39.5c0.1,0,0.3,0,0.4-0.1l1.3-0.8c0.4-0.2,0.5-0.7,0.3-1c-0.2-0.4-0.7-0.5-1-0.3l-1.3,0.8    c-0.4,0.2-0.5,0.7-0.3,1C17.9,39.4,18.2,39.5,18.4,39.5z"/><path class="st0" d="M44.2,23l-1.3,0.8c-0.4,0.2-0.5,0.7-0.3,1c0.1,0.2,0.4,0.4,0.6,0.4c0.1,0,0.3,0,0.4-0.1l1.3-0.8    c0.4-0.2,0.5-0.7,0.3-1C45,23,44.6,22.8,44.2,23z"/><path class="st0" d="M25.1,42.3c-0.4-0.2-0.8-0.1-1,0.3l-0.8,1.3c-0.2,0.4-0.1,0.8,0.3,1c0.1,0.1,0.2,0.1,0.4,0.1    c0.3,0,0.5-0.1,0.6-0.4l0.8-1.3C25.6,43,25.5,42.5,25.1,42.3z"/><path class="st0" d="M38.3,20.3c0.3,0,0.5-0.1,0.6-0.4l0.8-1.3c0.2-0.4,0.1-0.8-0.3-1c-0.4-0.2-0.8-0.1-1,0.3l-0.8,1.3    c-0.2,0.4-0.1,0.8,0.3,1C38,20.2,38.1,20.3,38.3,20.3z"/><path class="st0" d="M40.5,22.6c-0.3-0.3-0.8-0.3-1.1,0L33.1,29c-0.5-0.3-1-0.4-1.6-0.4c-1.7,0-3.1,1.4-3.1,3.1    c0,0.6,0.2,1.1,0.4,1.6l-1,1c-0.3,0.3-0.3,0.8,0,1.1c0.1,0.1,0.3,0.2,0.5,0.2s0.4-0.1,0.5-0.2l1-1c0.5,0.3,1,0.4,1.6,0.4    c0.6,0,1.1-0.2,1.6-0.4l5,5c0.1,0.1,0.3,0.2,0.5,0.2s0.4-0.1,0.5-0.2c0.3-0.3,0.3-0.8,0-1.1l-5-5c0.3-0.5,0.4-1,0.4-1.6    c0-0.6-0.2-1.1-0.4-1.6l6.4-6.4C40.8,23.3,40.8,22.9,40.5,22.6z M31.5,33.2c-0.9,0-1.6-0.7-1.6-1.6s0.7-1.6,1.6-1.6    s1.6,0.7,1.6,1.6S32.4,33.2,31.5,33.2z"/></g></g></svg>