<?xml version="1.0" ?><svg id="Layer_1" style="enable-background:new 0 0 65 65;" version="1.1" viewBox="0 0 65 65" xml:space="preserve" xmlns="http://www.w3.org/2000/svg" xmlns:xlink="http://www.w3.org/1999/xlink"><style type="text/css">
	.st0{fill:#3D3D3D;}
</style><g><g><path class="st0" d="M63.5,54.9h-4.2v-4.2c0-1.8-1.2-3.4-2.9-4l-4.5-1.5c-0.3-0.1-0.7,0-0.9,0.4l-3,5.7l-3-5.7    c-0.2-0.3-0.6-0.5-0.9-0.4l-4.5,1.5c-1.7,0.6-2.9,2.2-2.9,4v4.2h-8.2v-4.2c0-1.8-1.2-3.4-2.9-4L21,45.2c-0.3-0.1-0.7,0-0.9,0.4    l-3,5.7l-3-5.7c-0.2-0.3-0.6-0.5-0.9-0.4l-4.5,1.5c-1.7,0.6-2.9,2.2-2.9,4v4.2H1.5c-0.4,0-0.8,0.3-0.8,0.8s0.3,0.8,0.8,0.8h62    c0.4,0,0.8-0.3,0.8-0.8S63.9,54.9,63.5,54.9z M7.3,54.9v-4.2c0-1.2,0.8-2.2,1.9-2.6l3.9-1.3l3.4,6.5c0.3,0.5,1.1,0.5,1.3,0    l3.4-6.5l3.9,1.3c1.1,0.4,1.9,1.4,1.9,2.6v4.2H7.3z M38.1,54.9v-4.2c0-1.2,0.8-2.2,1.9-2.6l3.9-1.3l3.4,6.5    c0.1,0.2,0.4,0.4,0.7,0.4s0.5-0.2,0.7-0.4l3.4-6.5l3.9,1.3c1.1,0.4,1.9,1.4,1.9,2.6v4.2H38.1z"/><path class="st0" d="M54.5,58.9h-44c-0.4,0-0.8,0.3-0.8,0.8s0.3,0.8,0.8,0.8h44c0.4,0,0.8-0.3,0.8-0.8S54.9,58.9,54.5,58.9z"/><path class="st0" d="M46.5,62.9h-6c-0.4,0-0.8,0.3-0.8,0.8s0.3,0.8,0.8,0.8h6c0.4,0,0.8-0.3,0.8-0.8S46.9,62.9,46.5,62.9z"/><path class="st0" d="M36.5,62.9h-18c-0.4,0-0.8,0.3-0.8,0.8s0.3,0.8,0.8,0.8h18c0.4,0,0.8-0.3,0.8-0.8S36.9,62.9,36.5,62.9z"/><path class="st0" d="M3.3,45.7C3.3,45.7,3.3,45.7,3.3,45.7C3.3,45.7,3.3,45.7,3.3,45.7c-0.4,0.9-1.1,1.6-2,2c0,0,0,0,0,0    c0,0,0,0,0,0c0.9,0.4,1.6,1.1,2,2c0,0,0,0,0,0c0,0,0,0,0,0c0.4-0.9,1.1-1.6,2-2c0,0,0,0,0,0c0,0,0,0,0,0    C4.4,47.3,3.7,46.6,3.3,45.7z"/><path class="st0" d="M3.5,6.6C3.5,6.6,3.5,6.6,3.5,6.6C3.5,6.6,3.5,6.6,3.5,6.6c0.7-1.3,1.7-2.3,3-3c0,0,0,0,0,0c0,0,0,0,0,0    c-1.3-0.6-2.3-1.7-3-3c0,0,0,0,0,0c0,0,0,0,0,0c-0.6,1.3-1.7,2.3-3,3c0,0,0,0,0,0c0,0,0,0,0,0C1.8,4.3,2.9,5.3,3.5,6.6z"/><path class="st0" d="M60.5,46.6C60.5,46.6,60.5,46.6,60.5,46.6C60.5,46.6,60.5,46.6,60.5,46.6c0.4-0.9,1.1-1.6,2-2c0,0,0,0,0,0    c0,0,0,0,0,0c-0.9-0.4-1.6-1.1-2-2c0,0,0,0,0,0c0,0,0,0,0,0c-0.4,0.9-1.1,1.6-2,2c0,0,0,0,0,0c0,0,0,0,0,0    C59.4,45.1,60.1,45.7,60.5,46.6z"/><path class="st0" d="M50.5,4.6C50.5,4.6,50.5,4.6,50.5,4.6C50.5,4.6,50.5,4.6,50.5,4.6c0.2-0.4,0.6-0.8,1-1c0,0,0,0,0,0    c0,0,0,0,0,0c-0.4-0.2-0.8-0.6-1-1c0,0,0,0,0,0c0,0,0,0,0,0c-0.2,0.4-0.6,0.8-1,1c0,0,0,0,0,0c0,0,0,0,0,0    C49.9,3.8,50.3,4.2,50.5,4.6z"/><path class="st0" d="M64.5,16.6c-1.3-0.6-2.3-1.7-3-3c0,0,0,0,0,0c0,0,0,0,0,0c-0.6,1.3-1.7,2.3-3,3c0,0,0,0,0,0c0,0,0,0,0,0    c1.3,0.6,2.3,1.7,3,3c0,0,0,0,0,0c0,0,0,0,0,0C62.1,18.3,63.2,17.3,64.5,16.6C64.5,16.6,64.5,16.6,64.5,16.6    C64.5,16.6,64.5,16.6,64.5,16.6z"/><path class="st0" d="M17.1,31c-2.9,0-5.2,2.3-5.2,5.2c0,2.7,2.2,7.8,5.2,7.8s5.2-5,5.2-7.8C22.3,33.3,20,31,17.1,31z M17.1,42.5    c-1.8,0-3.7-4-3.7-6.3c0-2.1,1.7-3.7,3.7-3.7s3.7,1.7,3.7,3.7C20.8,38.5,18.9,42.5,17.1,42.5z"/><path class="st0" d="M47.9,44c3.1,0,5.2-5,5.2-7.8c0-2.9-2.3-5.2-5.2-5.2c-2.9,0-5.2,2.3-5.2,5.2C42.7,38.9,44.9,44,47.9,44z     M47.9,32.5c2.1,0,3.7,1.7,3.7,3.7c0,2.2-1.9,6.3-3.7,6.3c-1.8,0-3.7-4-3.7-6.3C44.2,34.2,45.9,32.5,47.9,32.5z"/><path class="st0" d="M43.8,28.8v-5c0-1.8-1.2-3.4-2.9-4l-4.5-1.5c-0.3-0.1-0.7,0-0.9,0.4l-3,5.7l-3-5.7c-0.2-0.3-0.6-0.5-0.9-0.4    l-4.5,1.5c-1.7,0.6-2.9,2.2-2.9,4v5c0,0.4,0.3,0.8,0.8,0.8h21.2C43.5,29.5,43.8,29.2,43.8,28.8z M42.3,28H22.7v-4.2    c0-1.2,0.8-2.2,1.9-2.6l3.9-1.3l3.4,6.5c0.3,0.5,1.1,0.5,1.3,0l3.4-6.5l3.9,1.3c1.1,0.4,1.9,1.4,1.9,2.6V28z"/><path class="st0" d="M32.5,17.1c3.1,0,5.2-5,5.2-7.8c0-2.9-2.3-5.2-5.2-5.2c-2.9,0-5.2,2.3-5.2,5.2C27.3,12.1,29.4,17.1,32.5,17.1    z M32.5,5.6c2,0,3.7,1.7,3.7,3.7c0,2.2-1.9,6.3-3.7,6.3c-1.8,0-3.7-4-3.7-6.3C28.8,7.3,30.5,5.6,32.5,5.6z"/><path class="st0" d="M40.1,9.6c9.9,3.3,16.5,12.5,16.5,22.8c0,3.7-0.8,7.3-2.5,10.6c-0.2,0.4,0,0.8,0.3,1c0.1,0.1,0.2,0.1,0.3,0.1    c0.3,0,0.5-0.2,0.7-0.4c1.7-3.5,2.6-7.3,2.6-11.3c0-11-7-20.8-17.5-24.3c-0.4-0.1-0.8,0.1-0.9,0.5C39.5,9,39.7,9.4,40.1,9.6z"/><path class="st0" d="M10.2,44.1c0.1,0,0.2,0,0.3-0.1c0.4-0.2,0.5-0.6,0.3-1c-1.6-3.3-2.5-6.9-2.5-10.6c0-10.4,6.6-19.6,16.5-22.8    c0.4-0.1,0.6-0.6,0.5-0.9S24.8,8,24.4,8.2C14,11.6,6.9,21.4,6.9,32.4c0,4,0.9,7.8,2.6,11.3C9.7,44,10,44.1,10.2,44.1z"/></g></g></svg>